HIERARCHY
ROOT root
{
	OFFSET	0	13.1	24.9
	CHANNELS 6  Xposition Yposition Zposition Xrotation Yrotation Zrotation
	JOINT spine_1
	{
		OFFSET	0	9.99999	0
		CHANNELS 3  Xrotation Yrotation Zrotation
		JOINT spine_2
		{
			OFFSET	0	112	-10
			CHANNELS 3  Xrotation Yrotation Zrotation
			JOINT spine_3
			{
				OFFSET	0	206.5	19.3
				CHANNELS 3  Xrotation Yrotation Zrotation
				JOINT spine_4
				{
					OFFSET	0	110.4	14.6
					CHANNELS 3  Xrotation Yrotation Zrotation
					JOINT neck_1
					{
						OFFSET	0	71.8	-50.3
						CHANNELS 3  Xrotation Yrotation Zrotation
						JOINT neck_2
						{
							OFFSET	0	86.2	-25.8
							CHANNELS 3  Xrotation Yrotation Zrotation
							JOINT head_ee
							{
								OFFSET	0	179.8	-8.7
								CHANNELS 3  Xrotation Yrotation Zrotation
								End Site
								{
									OFFSET	1	0	0
								}
							}
						}
					}
					JOINT left_clavicle
					{
						OFFSET	-43.2	22.4	-70.8
						CHANNELS 3  Xrotation Yrotation Zrotation
						JOINT left_shoulder
						{
							OFFSET	-93.9	-5.79999	48.7
							CHANNELS 3  Xrotation Yrotation Zrotation
							JOINT left_elbow
							{
								OFFSET	-291.4	-30.8	15.2
								CHANNELS 3  Xrotation Yrotation Zrotation
								JOINT left_lowarm_twist
								{
									OFFSET	-110.7	-3.89999	13.6
									CHANNELS 3  Xrotation Yrotation Zrotation
									JOINT left_hand
									{
										OFFSET	-110.7	-3.89999	13.6
										CHANNELS 3  Xrotation Yrotation Zrotation
										JOINT left_ee
										{
											OFFSET	-80.8	-5.10001	12.1
											CHANNELS 3  Xrotation Yrotation Zrotation
											End Site
											{
												OFFSET	1	0	0
											}
										}
									}
								}
							}
						}
					}
					JOINT right_clavicle
					{
						OFFSET	43.2	22.4	-70.8
						CHANNELS 3  Xrotation Yrotation Zrotation
						JOINT right_shoulder
						{
							OFFSET	93.9	-5.79999	48.7
							CHANNELS 3  Xrotation Yrotation Zrotation
							JOINT right_elbow
							{
								OFFSET	291.4	-30.8	15.2
								CHANNELS 3  Xrotation Yrotation Zrotation
								JOINT right_lowarm_twist
								{
									OFFSET	110.7	-3.89999	13.6
									CHANNELS 3  Xrotation Yrotation Zrotation
									JOINT right_hand
									{
										OFFSET	110.7	-3.89999	13.6
										CHANNELS 3  Xrotation Yrotation Zrotation
										JOINT right_ee
										{
											OFFSET	80.8	-5.10001	12.1
											CHANNELS 3  Xrotation Yrotation Zrotation
											End Site
											{
												OFFSET	1	0	0
											}
										}
									}
								}
							}
						}
					}
				}
			}
		}
	}
	JOINT left_hip
	{
		OFFSET	-82.8	-127.5	0.300001
		CHANNELS 3  Xrotation Yrotation Zrotation
		JOINT left_knee
		{
			OFFSET	-28.2	-396.7	2.2
			CHANNELS 3  Xrotation Yrotation Zrotation
			JOINT left_ankle
			{
				OFFSET	-11.7	-411.3	35.4
				CHANNELS 3  Xrotation Yrotation Zrotation
				JOINT left_toes
				{
					OFFSET	0	-60	-88.6
					CHANNELS 3  Xrotation Yrotation Zrotation
					JOINT left_foot_ee
					{
						OFFSET	-22.5	-16.5	-42.2
						CHANNELS 3  Xrotation Yrotation Zrotation
						End Site
						{
							OFFSET	1	0	0
						}
					}
				}
			}
		}
	}
	JOINT right_hip
	{
		OFFSET	82.8	-127.5	0.300001
		CHANNELS 3  Xrotation Yrotation Zrotation
		JOINT right_knee
		{
			OFFSET	28.2	-396.7	2.2
			CHANNELS 3  Xrotation Yrotation Zrotation
			JOINT right_ankle
			{
				OFFSET	11.7	-411.3	35.4
				CHANNELS 3  Xrotation Yrotation Zrotation
				JOINT right_toes
				{
					OFFSET	0	-60	-88.6
					CHANNELS 3  Xrotation Yrotation Zrotation
					JOINT right_foot_ee
					{
						OFFSET	22.5	-16.5	-42.2
						CHANNELS 3  Xrotation Yrotation Zrotation
						End Site
						{
							OFFSET	1	0	0
						}
					}
				}
			}
		}
	}
}
MOTION
Frames: 13
Frame Time: 0.02
3505.25205962 732.656 -1538.29725622 149.552359077 81.1687806099 -149.266554574 -1.93085 0.383163 0.38534 -1.93084 0.357866 0.40894 -1.92815 0.247801 0.483626 -1.92833 0.32107 0.438422 -6.69802 -2.64587 -13.467 -6.17067 4.94446 -14.0701 -0.0 0.0 -0.0 -0.710078 20.1897 1.31509 -21.5932 -50.6645 55.7582 0.838013 -22.5445 0.167032 -80.2471 -7.85318 5.27635 -1.00828 14.7144 -0.24063 -0.0 0.0 -0.0 3.02108 25.9845 -3.56786 -1.91101 14.5729 -60.2535 1.45364 35.7551 -0.468906 6.59521 -0.185247 0.821623 -2.1228 -6.17547 11.3668 0.0 0.0 0.0 16.073 29.0987 -6.73614 -23.8 0.231202 3.6188 15.3934 3.93806 -2.14825 -16.737 0.0 0.0 -0.0 0.0 -0.0 -7.16394 15.007 -2.17151 -12.0535 -0.305683 -1.82114 19.1254 -11.5051 2.6291 2.62315 -0.0 -0.0 0.0 0.0 0.0 
3507.96654128 732.656 -1541.12983332 139.465095126 83.1248398712 -139.085765975 -1.93085 0.383163 0.38534 -1.93084 0.357866 0.40894 -1.92815 0.247801 0.483626 -1.92833 0.32107 0.438422 -6.69802 -2.64587 -13.467 -6.17067 4.94446 -14.0701 -0.0 0.0 -0.0 -0.710078 20.1897 1.31509 -21.5932 -50.6645 55.7582 0.838013 -22.5445 0.167032 -80.2471 -7.85318 5.27635 -1.00828 14.7144 -0.24063 -0.0 0.0 -0.0 3.02108 25.9845 -3.56786 -1.91101 14.5729 -60.2535 1.45364 35.7551 -0.468906 6.59521 -0.185247 0.821623 -2.1228 -6.17547 11.3668 0.0 0.0 0.0 16.073 29.0987 -6.73614 -23.8 0.231202 3.6188 15.3934 3.93806 -2.14825 -16.737 0.0 0.0 -0.0 0.0 -0.0 -7.16394 15.007 -2.17151 -12.0535 -0.305683 -1.82114 19.1254 -11.5051 2.6291 2.62315 -0.0 -0.0 0.0 0.0 0.0 
3510.27494236 732.656 -1543.36243855 126.224174587 84.4658412931 -125.768427873 -1.93085 0.383163 0.38534 -1.93084 0.357866 0.40894 -1.92815 0.247801 0.483626 -1.92833 0.32107 0.438422 -6.69802 -2.64587 -13.467 -6.17067 4.94446 -14.0701 -0.0 0.0 -0.0 -0.710078 20.1897 1.31509 -21.5932 -50.6645 55.7582 0.838013 -22.5445 0.167032 -80.2471 -7.85318 5.27635 -1.00828 14.7144 -0.24063 -0.0 0.0 -0.0 3.02108 25.9845 -3.56786 -1.91101 14.5729 -60.2535 1.45364 35.7551 -0.468906 6.59521 -0.185247 0.821623 -2.1228 -6.17547 11.3668 0.0 0.0 0.0 16.073 29.0987 -6.73614 -23.8 0.231202 3.6188 15.3934 3.93806 -2.14825 -16.737 0.0 0.0 -0.0 0.0 -0.0 -7.16394 15.007 -2.17151 -12.0535 -0.305683 -1.82114 19.1254 -11.5051 2.6291 2.62315 -0.0 -0.0 0.0 0.0 0.0 
3511.14999555 732.656 -1544.16994943 119.696984488 84.8616011439 -119.212926694 -1.93085 0.383163 0.38534 -1.93084 0.357866 0.40894 -1.92815 0.247801 0.483626 -1.92833 0.32107 0.438422 -6.69802 -2.64587 -13.467 -6.17067 4.94446 -14.0701 -0.0 0.0 -0.0 -0.710078 20.1897 1.31509 -21.5932 -50.6645 55.7582 0.838013 -22.5445 0.167032 -80.2471 -7.85318 5.27635 -1.00828 14.7144 -0.24063 -0.0 0.0 -0.0 3.02108 25.9845 -3.56786 -1.91101 14.5729 -60.2535 1.45364 35.7551 -0.468906 6.59521 -0.185247 0.821623 -2.1228 -6.17547 11.3668 0.0 0.0 0.0 16.073 29.0987 -6.73614 -23.8 0.231202 3.6188 15.3934 3.93806 -2.14825 -16.737 0.0 0.0 -0.0 0.0 -0.0 -7.16394 15.007 -2.17151 -12.0535 -0.305683 -1.82114 19.1254 -11.5051 2.6291 2.62315 -0.0 -0.0 0.0 0.0 0.0 
3501.18077682 737.898 -1538.28476633 122.584924949 83.7666154631 -121.545648882 -2.22888 0.308099 0.486532 -2.22879 0.276516 0.50515 -2.22614 0.142613 0.557941 -2.22651 0.228938 0.528417 -7.10835 -2.25644 -15.1642 -6.43569 6.8208 -15.6839 -0.0 0.0 -0.0 -0.924442 20.5642 1.05313 -22.9977 -50.3637 56.1904 0.757643 -20.5718 0.137496 -79.458 -7.75304 5.28671 -0.913391 13.7844 -0.0561525 -0.0 0.0 -0.0 3.00256 26.3727 -3.48722 0.406826 15.2015 -59.5944 1.54468 37.4202 -0.523178 5.17211 -0.153304 0.642644 -2.51305 -5.23005 14.4584 0.0 0.0 0.0 19.2903 28.1318 -7.28514 -25.6778 0.185205 3.90328 16.0125 5.21861 -2.22637 -15.402 0.0 0.0 -0.0 0.0 -0.0 -8.93024 15.7238 -2.1759 -12.4009 -0.308776 -1.87435 18.9471 -9.65637 2.60169 3.01473 -0.0 -0.0 0.0 0.0 0.0 
3493.87577552 738.158 -1534.58382601 110.634746748 83.5842693815 -110.070807898 -2.51271 0.297844 0.828836 -2.51236 0.244502 0.846108 -2.50819 0.0227125 0.880431 -2.50923 0.16147 0.865797 -7.32977 -1.8948 -15.9311 -6.58478 7.99843 -16.3726 -0.0 0.0 -0.0 -0.759399 21.0873 1.36214 -24.3185 -50.0573 57.1157 0.592138 -16.348 0.0850551 -78.648 -7.65008 5.29591 -0.742184 12.8653 0.619785 -0.0 0.0 -0.0 3.07622 26.2164 -3.66331 2.33838 15.4413 -58.522 1.61603 38.6756 -0.567157 3.5329 -0.111011 0.437529 -2.81408 -3.9677 17.159 0.0 0.0 0.0 21.8355 27.3654 -7.79146 -26.993 0.147446 4.10158 16.3499 6.1229 -2.26896 -14.5 0.0 0.0 -0.0 0.0 -0.0 -10.4739 16.2483 -2.21267 -12.6387 -0.310708 -1.91079 18.8502 -7.87898 2.58734 3.28875 -0.0 -0.0 0.0 0.0 0.0 
3482.40020172 734.785 -1537.18746989 107.780901996 83.1436185014 -107.900830884 -2.67641 0.274178 1.0604 -2.67581 0.206151 1.07569 -2.67106 -0.075537 1.09266 -2.67272 0.0979651 1.09087 -7.70451 -1.68663 -16.7094 -6.88698 8.85478 -17.0794 -0.0 0.0 -0.0 -0.55008 21.3996 1.70238 -25.1909 -49.8704 57.7817 0.48084 -13.3981 0.0564778 -78.0818 -7.57802 5.30146 -0.596736 12.2217 1.2621 -0.0 0.0 -0.0 3.23977 26.0987 -4.03031 3.8553 15.6249 -57.8339 1.72566 40.5217 -0.637044 2.38557 -0.0779229 0.29471 -3.0578 -2.98921 19.3624 0.0 0.0 0.0 23.7269 26.7474 -8.38852 -27.6845 0.125768 4.20549 16.5737 7.02987 -2.29732 -13.8758 0.0 0.0 -0.0 0.0 -0.0 -11.5541 16.5965 -2.26039 -12.8101 -0.312006 -1.93705 18.7726 -6.63655 2.57753 3.40436 -0.0 -0.0 0.0 0.0 0.0 
3467.11465664 725.373 -1538.32389575 106.551854319 82.4793841323 -105.472076585 -2.82006 0.341693 1.20301 -2.8193 0.264456 1.22231 -2.81247 -0.0597038 1.24916 -2.81462 0.138311 1.24291 -7.98378 -1.53353 -17.2568 -7.11409 9.46079 -17.5707 -0.0 0.0 -0.0 -0.790079 21.8435 1.41886 -26.9664 -49.4261 57.8912 0.387299 -10.8608 0.0368181 -77.6841 -7.52736 5.30493 -0.483572 11.7109 1.76275 -0.0 0.0 -0.0 3.37251 26.2871 -4.29866 5.69156 15.9421 -56.9079 1.83779 42.3102 -0.711227 1.557 -0.0522512 0.19199 -3.23443 -2.24905 20.9987 0.0 0.0 0.0 25.0432 26.3378 -8.70478 -28.1326 0.11105 4.27269 16.6614 7.70643 -2.30861 -13.4643 0.0 0.0 -0.0 0.0 -0.0 -12.4297 16.8421 -2.32992 -12.9771 -0.313196 -1.96264 18.7096 -5.7651 2.57031 3.4851 -0.0 -0.0 0.0 0.0 0.0 
3457.10337284 725.622 -1536.58079007 107.632807331 82.4962173978 -107.027710107 -2.8319 0.390326 1.32986 -2.83097 0.30492 1.352 -2.82231 -0.0542845 1.38489 -2.82495 0.165092 1.37608 -8.1591 -1.44572 -17.5413 -7.26239 9.78084 -17.8194 -0.0 0.0 -0.0 -0.845819 22.2711 1.39755 -27.9204 -49.1327 58.4766 0.321536 -9.05022 0.0254473 -77.407 -7.49206 5.30714 -0.378033 11.3235 2.27073 -0.0 0.0 -0.0 3.58575 26.8448 -4.70307 7.66732 16.6105 -56.0775 1.98483 44.5105 -0.812297 0.927009 -0.0317386 0.11414 -3.36409 -1.64435 22.2455 0.0 0.0 0.0 26.6238 25.9999 -9.06072 -27.0201 0.14662 4.10566 16.727 8.27718 -2.3173 -13.1766 0.0 0.0 -0.0 0.0 -0.0 -13.6637 17.0191 -2.37886 -13.3445 -0.31555 -2.01897 18.6638 -5.15598 2.5654 3.54318 -0.0 -0.0 0.0 0.0 0.0 
3447.44797021 724.93 -1536.63786343 105.153860064 82.2083009429 -104.437839186 -2.94336 0.430093 1.42079 -2.9423 0.338823 1.44527 -2.93204 -0.048434 1.48366 -2.93506 0.186464 1.47269 -8.41462 -1.33686 -17.7365 -7.50143 10.0512 -17.9615 -0.0 0.0 -0.0 -0.909622 22.5637 1.34795 -28.6155 -48.9208 58.8607 0.254272 -7.17927 0.0159512 -77.1857 -7.46385 5.30878 -0.28801 11.0482 2.7294 -0.0 0.0 -0.0 4.07271 27.1266 -5.73049 9.17477 17.0689 -55.6737 2.09661 46.0791 -0.891747 0.485486 -0.0168526 0.0597133 -3.45661 -1.22086 23.1384 0.0 0.0 0.0 27.9561 25.7426 -9.21593 -26.1674 0.17168 3.97721 16.7732 8.70339 -2.32357 -12.9756 0.0 0.0 -0.0 0.0 -0.0 -14.5285 17.1432 -2.44303 -13.6048 -0.316999 -2.05887 18.6269 -4.73084 2.56151 3.57647 -0.0 -0.0 0.0 0.0 0.0 
3435.49204187 718.674 -1541.55704451 107.197913819 81.8722840428 -106.075400612 -3.01367 0.471203 1.56385 -3.01238 0.370749 1.59066 -2.99998 -0.0573198 1.63228 -3.00365 0.201152 1.62085 -8.61322 -1.22912 -17.8204 -7.69432 10.2548 -17.9979 -0.0 0.0 -0.0 -1.05809 22.7822 1.17163 -29.576 -48.6378 59.0002 0.20705 -5.85628 0.0105907 -77.0117 -7.44166 5.30999 -0.215552 10.8327 3.10255 -0.0 0.0 -0.0 4.42376 27.3247 -6.47197 10.92 17.4431 -55.0844 2.22761 47.8103 -0.987481 0.175576 -0.00615322 0.021579 -3.52569 -0.832857 23.8474 0.0 0.0 0.0 28.9133 25.5763 -9.26595 -24.9817 0.203344 3.798 16.7409 9.07364 -2.31981 -12.858 0.0 0.0 -0.0 0.0 -0.0 -14.9292 17.3107 -3.15296 -13.7897 -0.317919 -2.08723 18.6022 -4.37824 2.55913 3.6023 -0.0 -0.0 0.0 0.0 0.0 
3431.93112562 716.221 -1540.1520932 114.237869797 82.7641108496 -113.805000869 -2.97972 0.349013 1.84367 -2.97786 0.231009 1.86214 -2.96774 -0.262127 1.85801 -2.97256 0.0345482 1.87609 -8.9138 -0.732352 -17.0707 -8.07506 10.5604 -17.0975 -0.0 0.0 -0.0 -1.08443 22.5298 1.09938 -30.2082 -48.4621 59.1158 0.175358 -4.9648 0.00760229 -76.688 -7.40038 5.31207 -0.115973 9.98207 3.39081 -0.0 0.0 -0.0 4.67872 27.4115 -7.01679 12.1997 17.6338 -54.6561 2.49611 51.0282 -1.19148 -0.0560041 0.00197657 -0.00687925 -3.64184 -0.477427 24.8898 0.0 0.0 0.0 30.2638 25.4318 -9.45366 -19.0509 0.305724 2.89409 16.7199 9.32358 -2.31742 -12.8153 0.0 0.0 -0.0 0.0 -0.0 -15.64 17.4368 -3.60319 -14.1552 -0.319467 -2.14329 19.5418 -4.04081 2.67769 3.95575 -0.0 -0.0 0.0 0.0 0.0 
3414.89721561 709.744 -1540.49243796 120.60772621 82.1826371241 -119.655318502 -3.15764 0.319972 2.00211 -3.15543 0.191951 2.01841 -3.14559 -0.346798 1.99764 -3.15115 -0.0270228 2.02733 -9.11768 -0.361281 -16.43 -8.34455 10.7444 -16.3465 -0.0 0.0 -0.0 -1.22967 22.4511 0.8852 -30.9799 -48.2289 59.0707 0.155252 -4.39791 0.00596133 -76.3587 -7.35836 5.31394 -0.0244103 9.06991 3.60715 -0.0 0.0 -0.0 4.89995 27.4682 -7.49169 13.2059 17.7745 -54.2969 2.70815 53.2892 -1.35897 -0.209919 0.00744346 -0.0257755 -3.72349 -0.241379 25.6209 0.0 0.0 0.0 30.8929 25.3657 -9.51448 -14.9143 0.32154 2.25974 16.0698 9.55166 -2.23361 -12.7852 0.0 0.0 -0.0 0.0 -0.0 -15.5835 17.4904 -4.10566 -14.2414 -0.31978 -2.15651 20.2713 -3.80914 2.76881 4.20788 -0.0 -0.0 0.0 0.0 0.0 
